<mxfile host="Electron" agent="Mozilla/5.0 (Windows NT 10.0; Win64; x64) AppleWebKit/537.36 (KHTML, like Gecko) draw.io/24.7.17 Chrome/128.0.6613.36 Electron/32.0.1 Safari/537.36" version="24.7.17">
  <diagram name="Страница — 1" id="FnN3TmrqMWvf5U0QRyU4">
    <mxGraphModel dx="361" dy="605" grid="1" gridSize="10" guides="1" tooltips="1" connect="1" arrows="1" fold="1" page="1" pageScale="1" pageWidth="827" pageHeight="1169" math="0" shadow="0">
      <root>
        <mxCell id="0" />
        <mxCell id="1" parent="0" />
        <mxCell id="MxVB5uM-RIzDyaNLnOSY-3" style="edgeStyle=orthogonalEdgeStyle;rounded=0;orthogonalLoop=1;jettySize=auto;html=1;exitX=0.5;exitY=1;exitDx=0;exitDy=0;entryX=0.5;entryY=0;entryDx=0;entryDy=0;" edge="1" parent="1" source="MxVB5uM-RIzDyaNLnOSY-1" target="MxVB5uM-RIzDyaNLnOSY-2">
          <mxGeometry relative="1" as="geometry">
            <Array as="points">
              <mxPoint x="530" y="90" />
              <mxPoint x="530" y="90" />
            </Array>
          </mxGeometry>
        </mxCell>
        <mxCell id="MxVB5uM-RIzDyaNLnOSY-1" value="Начало" style="ellipse;whiteSpace=wrap;html=1;" vertex="1" parent="1">
          <mxGeometry x="470" y="10" width="120" height="60" as="geometry" />
        </mxCell>
        <mxCell id="MxVB5uM-RIzDyaNLnOSY-9" style="edgeStyle=orthogonalEdgeStyle;rounded=0;orthogonalLoop=1;jettySize=auto;html=1;exitX=0.5;exitY=1;exitDx=0;exitDy=0;entryX=0.5;entryY=0;entryDx=0;entryDy=0;" edge="1" parent="1" source="MxVB5uM-RIzDyaNLnOSY-2" target="MxVB5uM-RIzDyaNLnOSY-8">
          <mxGeometry relative="1" as="geometry" />
        </mxCell>
        <mxCell id="MxVB5uM-RIzDyaNLnOSY-2" value="&lt;div&gt;int n, s, o;&lt;/div&gt;&lt;div&gt;bool flag = false;&lt;/div&gt;" style="rounded=0;whiteSpace=wrap;html=1;" vertex="1" parent="1">
          <mxGeometry x="470" y="110" width="120" height="50" as="geometry" />
        </mxCell>
        <mxCell id="MxVB5uM-RIzDyaNLnOSY-5" style="edgeStyle=orthogonalEdgeStyle;rounded=0;orthogonalLoop=1;jettySize=auto;html=1;exitX=0;exitY=0.5;exitDx=0;exitDy=0;exitPerimeter=0;" edge="1" parent="1" source="MxVB5uM-RIzDyaNLnOSY-4">
          <mxGeometry relative="1" as="geometry">
            <mxPoint x="530" y="80" as="targetPoint" />
          </mxGeometry>
        </mxCell>
        <mxCell id="MxVB5uM-RIzDyaNLnOSY-4" value="{" style="strokeWidth=2;html=1;shape=mxgraph.flowchart.annotation_2;align=left;labelPosition=right;pointerEvents=1;" vertex="1" parent="1">
          <mxGeometry x="580" y="30" width="80" height="100" as="geometry" />
        </mxCell>
        <mxCell id="MxVB5uM-RIzDyaNLnOSY-11" style="edgeStyle=orthogonalEdgeStyle;rounded=0;orthogonalLoop=1;jettySize=auto;html=1;" edge="1" parent="1" source="MxVB5uM-RIzDyaNLnOSY-8">
          <mxGeometry relative="1" as="geometry">
            <mxPoint x="530" y="280" as="targetPoint" />
          </mxGeometry>
        </mxCell>
        <mxCell id="MxVB5uM-RIzDyaNLnOSY-8" value="cin &amp;gt;&amp;gt; n&amp;gt;&amp;gt;s;" style="shape=parallelogram;perimeter=parallelogramPerimeter;whiteSpace=wrap;html=1;fixedSize=1;" vertex="1" parent="1">
          <mxGeometry x="470" y="190" width="120" height="60" as="geometry" />
        </mxCell>
        <mxCell id="MxVB5uM-RIzDyaNLnOSY-43" style="edgeStyle=orthogonalEdgeStyle;rounded=0;orthogonalLoop=1;jettySize=auto;html=1;exitX=0.5;exitY=1;exitDx=0;exitDy=0;entryX=0.5;entryY=0;entryDx=0;entryDy=0;" edge="1" parent="1" source="MxVB5uM-RIzDyaNLnOSY-41" target="MxVB5uM-RIzDyaNLnOSY-42">
          <mxGeometry relative="1" as="geometry" />
        </mxCell>
        <mxCell id="MxVB5uM-RIzDyaNLnOSY-68" style="edgeStyle=orthogonalEdgeStyle;rounded=0;orthogonalLoop=1;jettySize=auto;html=1;exitX=1;exitY=0.5;exitDx=0;exitDy=0;entryX=0.5;entryY=0;entryDx=0;entryDy=0;" edge="1" parent="1" source="MxVB5uM-RIzDyaNLnOSY-41" target="MxVB5uM-RIzDyaNLnOSY-66">
          <mxGeometry relative="1" as="geometry">
            <mxPoint x="560" y="970" as="targetPoint" />
            <Array as="points">
              <mxPoint x="761" y="320" />
              <mxPoint x="761" y="950" />
              <mxPoint x="560" y="950" />
              <mxPoint x="560" y="990" />
            </Array>
          </mxGeometry>
        </mxCell>
        <mxCell id="MxVB5uM-RIzDyaNLnOSY-41" value="while (n&amp;gt;0 &amp;amp;&amp;amp; !flag)" style="rhombus;whiteSpace=wrap;html=1;" vertex="1" parent="1">
          <mxGeometry x="465" y="280" width="130" height="80" as="geometry" />
        </mxCell>
        <mxCell id="MxVB5uM-RIzDyaNLnOSY-44" style="edgeStyle=orthogonalEdgeStyle;rounded=0;orthogonalLoop=1;jettySize=auto;html=1;exitX=0.5;exitY=1;exitDx=0;exitDy=0;entryX=0.5;entryY=0;entryDx=0;entryDy=0;" edge="1" parent="1" source="MxVB5uM-RIzDyaNLnOSY-42" target="MxVB5uM-RIzDyaNLnOSY-52">
          <mxGeometry relative="1" as="geometry">
            <mxPoint x="510" y="550" as="targetPoint" />
            <Array as="points" />
          </mxGeometry>
        </mxCell>
        <mxCell id="MxVB5uM-RIzDyaNLnOSY-42" value="o=n%10;" style="rounded=0;whiteSpace=wrap;html=1;" vertex="1" parent="1">
          <mxGeometry x="470" y="390" width="120" height="60" as="geometry" />
        </mxCell>
        <mxCell id="MxVB5uM-RIzDyaNLnOSY-48" style="edgeStyle=orthogonalEdgeStyle;rounded=0;orthogonalLoop=1;jettySize=auto;html=1;exitX=0.5;exitY=1;exitDx=0;exitDy=0;entryX=0.5;entryY=0;entryDx=0;entryDy=0;" edge="1" parent="1" source="MxVB5uM-RIzDyaNLnOSY-46" target="MxVB5uM-RIzDyaNLnOSY-47">
          <mxGeometry relative="1" as="geometry" />
        </mxCell>
        <mxCell id="MxVB5uM-RIzDyaNLnOSY-46" value="cout &amp;lt;&amp;lt; &quot;Цифра не найдена&quot; &amp;lt;&amp;lt; endl;" style="shape=parallelogram;perimeter=parallelogramPerimeter;whiteSpace=wrap;html=1;fixedSize=1;" vertex="1" parent="1">
          <mxGeometry x="390" y="1120" width="135" height="90" as="geometry" />
        </mxCell>
        <mxCell id="MxVB5uM-RIzDyaNLnOSY-47" value="Конец" style="ellipse;whiteSpace=wrap;html=1;" vertex="1" parent="1">
          <mxGeometry x="397.5" y="1320" width="120" height="60" as="geometry" />
        </mxCell>
        <mxCell id="MxVB5uM-RIzDyaNLnOSY-72" style="edgeStyle=orthogonalEdgeStyle;rounded=0;orthogonalLoop=1;jettySize=auto;html=1;exitX=0;exitY=0.5;exitDx=0;exitDy=0;exitPerimeter=0;" edge="1" parent="1" source="MxVB5uM-RIzDyaNLnOSY-49">
          <mxGeometry relative="1" as="geometry">
            <mxPoint x="460" y="1290" as="targetPoint" />
          </mxGeometry>
        </mxCell>
        <mxCell id="MxVB5uM-RIzDyaNLnOSY-49" value="" style="strokeWidth=2;html=1;shape=mxgraph.flowchart.annotation_2;align=left;labelPosition=right;pointerEvents=1;" vertex="1" parent="1">
          <mxGeometry x="520" y="1240" width="97.5" height="100" as="geometry" />
        </mxCell>
        <mxCell id="MxVB5uM-RIzDyaNLnOSY-51" value="}" style="text;html=1;align=center;verticalAlign=middle;resizable=0;points=[];autosize=1;strokeColor=none;fillColor=none;" vertex="1" parent="1">
          <mxGeometry x="580" y="1275" width="30" height="30" as="geometry" />
        </mxCell>
        <mxCell id="MxVB5uM-RIzDyaNLnOSY-56" style="edgeStyle=orthogonalEdgeStyle;rounded=0;orthogonalLoop=1;jettySize=auto;html=1;exitX=0;exitY=0.5;exitDx=0;exitDy=0;" edge="1" parent="1" source="MxVB5uM-RIzDyaNLnOSY-52" target="MxVB5uM-RIzDyaNLnOSY-53">
          <mxGeometry relative="1" as="geometry" />
        </mxCell>
        <mxCell id="MxVB5uM-RIzDyaNLnOSY-58" style="edgeStyle=orthogonalEdgeStyle;rounded=0;orthogonalLoop=1;jettySize=auto;html=1;exitX=1;exitY=0.5;exitDx=0;exitDy=0;entryX=0.5;entryY=0;entryDx=0;entryDy=0;" edge="1" parent="1" source="MxVB5uM-RIzDyaNLnOSY-52" target="MxVB5uM-RIzDyaNLnOSY-57">
          <mxGeometry relative="1" as="geometry" />
        </mxCell>
        <mxCell id="MxVB5uM-RIzDyaNLnOSY-52" value="if(o==s)" style="rhombus;whiteSpace=wrap;html=1;" vertex="1" parent="1">
          <mxGeometry x="455" y="533" width="150" height="80" as="geometry" />
        </mxCell>
        <mxCell id="MxVB5uM-RIzDyaNLnOSY-55" style="edgeStyle=orthogonalEdgeStyle;rounded=0;orthogonalLoop=1;jettySize=auto;html=1;exitX=0.5;exitY=1;exitDx=0;exitDy=0;entryX=0.5;entryY=0;entryDx=0;entryDy=0;" edge="1" parent="1" source="MxVB5uM-RIzDyaNLnOSY-53" target="MxVB5uM-RIzDyaNLnOSY-54">
          <mxGeometry relative="1" as="geometry" />
        </mxCell>
        <mxCell id="MxVB5uM-RIzDyaNLnOSY-53" value="flag=true;" style="rounded=0;whiteSpace=wrap;html=1;" vertex="1" parent="1">
          <mxGeometry x="355" y="670" width="120" height="60" as="geometry" />
        </mxCell>
        <mxCell id="MxVB5uM-RIzDyaNLnOSY-62" style="edgeStyle=orthogonalEdgeStyle;rounded=0;orthogonalLoop=1;jettySize=auto;html=1;exitX=0.5;exitY=1;exitDx=0;exitDy=0;" edge="1" parent="1" source="MxVB5uM-RIzDyaNLnOSY-54">
          <mxGeometry relative="1" as="geometry">
            <mxPoint x="570" y="890" as="targetPoint" />
            <Array as="points">
              <mxPoint x="430" y="890" />
            </Array>
          </mxGeometry>
        </mxCell>
        <mxCell id="MxVB5uM-RIzDyaNLnOSY-54" value="cout&amp;lt;&amp;lt;&quot;Цифра найдена!&quot; &amp;lt;&amp;lt; endl;" style="shape=parallelogram;perimeter=parallelogramPerimeter;whiteSpace=wrap;html=1;fixedSize=1;" vertex="1" parent="1">
          <mxGeometry x="340" y="770" width="150" height="80" as="geometry" />
        </mxCell>
        <mxCell id="MxVB5uM-RIzDyaNLnOSY-61" style="edgeStyle=orthogonalEdgeStyle;rounded=0;orthogonalLoop=1;jettySize=auto;html=1;exitX=0.5;exitY=1;exitDx=0;exitDy=0;" edge="1" parent="1" source="MxVB5uM-RIzDyaNLnOSY-57">
          <mxGeometry relative="1" as="geometry">
            <mxPoint x="570" y="890" as="targetPoint" />
            <Array as="points">
              <mxPoint x="678" y="890" />
            </Array>
          </mxGeometry>
        </mxCell>
        <mxCell id="MxVB5uM-RIzDyaNLnOSY-57" value="n/=10;" style="rounded=0;whiteSpace=wrap;html=1;" vertex="1" parent="1">
          <mxGeometry x="617.5" y="670" width="120" height="60" as="geometry" />
        </mxCell>
        <mxCell id="MxVB5uM-RIzDyaNLnOSY-59" value="0" style="text;html=1;align=center;verticalAlign=middle;resizable=0;points=[];autosize=1;strokeColor=none;fillColor=none;" vertex="1" parent="1">
          <mxGeometry x="625" y="538" width="30" height="30" as="geometry" />
        </mxCell>
        <mxCell id="MxVB5uM-RIzDyaNLnOSY-63" value="1" style="text;html=1;align=center;verticalAlign=middle;resizable=0;points=[];autosize=1;strokeColor=none;fillColor=none;" vertex="1" parent="1">
          <mxGeometry x="425" y="538" width="30" height="30" as="geometry" />
        </mxCell>
        <mxCell id="MxVB5uM-RIzDyaNLnOSY-64" value="" style="endArrow=classic;html=1;rounded=0;" edge="1" parent="1">
          <mxGeometry width="50" height="50" relative="1" as="geometry">
            <mxPoint x="570" y="890" as="sourcePoint" />
            <mxPoint x="530" y="260" as="targetPoint" />
            <Array as="points">
              <mxPoint x="570" y="930" />
              <mxPoint x="260" y="930" />
              <mxPoint x="260" y="260" />
              <mxPoint x="400" y="260" />
            </Array>
          </mxGeometry>
        </mxCell>
        <mxCell id="MxVB5uM-RIzDyaNLnOSY-69" style="edgeStyle=orthogonalEdgeStyle;rounded=0;orthogonalLoop=1;jettySize=auto;html=1;exitX=0;exitY=0.5;exitDx=0;exitDy=0;entryX=0.5;entryY=0;entryDx=0;entryDy=0;" edge="1" parent="1" source="MxVB5uM-RIzDyaNLnOSY-66" target="MxVB5uM-RIzDyaNLnOSY-46">
          <mxGeometry relative="1" as="geometry" />
        </mxCell>
        <mxCell id="MxVB5uM-RIzDyaNLnOSY-66" value="if (!flag)" style="rhombus;whiteSpace=wrap;html=1;" vertex="1" parent="1">
          <mxGeometry x="485" y="1000" width="150" height="80" as="geometry" />
        </mxCell>
        <mxCell id="MxVB5uM-RIzDyaNLnOSY-70" value="1" style="text;html=1;align=center;verticalAlign=middle;resizable=0;points=[];autosize=1;strokeColor=none;fillColor=none;" vertex="1" parent="1">
          <mxGeometry x="455" y="988" width="30" height="30" as="geometry" />
        </mxCell>
      </root>
    </mxGraphModel>
  </diagram>
</mxfile>
